<svg width="14" height="14" viewBox="0 0 14 14" fill="none" xmlns="http://www.w3.org/2000/svg">
<path d="M7.33317 0.5C8.21723 0.5 9.06507 0.851189 9.69019 1.47631C10.3153 2.10143 10.6665 2.94928 10.6665 3.83333C10.6665 4.71739 10.3153 5.56523 9.69019 6.19036C9.06507 6.81548 8.21723 7.16667 7.33317 7.16667C6.44912 7.16667 5.60127 6.81548 4.97615 6.19036C4.35103 5.56523 3.99984 4.71739 3.99984 3.83333C3.99984 2.94928 4.35103 2.10143 4.97615 1.47631C5.60127 0.851189 6.44912 0.5 7.33317 0.5ZM7.33317 8.83333C11.0165 8.83333 13.9998 10.325 13.9998 12.1667V13.8333H0.666504V12.1667C0.666504 10.325 3.64984 8.83333 7.33317 8.83333Z" fill="black"/>
</svg>
