<svg width="17" height="19" viewBox="0 0 17 19" fill="none" xmlns="http://www.w3.org/2000/svg">
<path d="M5.94049 14.3335L8.51579 11.7335L11.0911 14.3335L12.4778 12.9335L9.90249 10.3335L12.4778 7.7335L11.0911 6.3335L8.51579 8.9335L5.94049 6.3335L4.55379 7.7335L7.12909 10.3335L4.55379 12.9335L5.94049 14.3335ZM3.56329 18.8335C3.01852 18.8335 2.55216 18.6377 2.16421 18.246C1.77627 17.8543 1.5823 17.3835 1.5823 16.8335V3.8335H0.591797V1.8335H5.54429V0.833496H11.4873V1.8335H16.4398V3.8335H15.4493V16.8335C15.4493 17.3835 15.2553 17.8543 14.8674 18.246C14.4794 18.6377 14.0131 18.8335 13.4683 18.8335H3.56329ZM13.4683 3.8335H3.56329V16.8335H13.4683V3.8335Z" fill="#B29C46"/>
</svg>
