<svg width="15" height="16" viewBox="0 0 15 16" fill="none" xmlns="http://www.w3.org/2000/svg">
<path d="M10 13.8333L5 12.075V2.16667L10 3.925M14.5833 0.5H14.45L10 2.25L5 0.5L0.3 2.08333C0.125 2.14167 0 2.29167 0 2.48333V15.0833C0 15.1938 0.0438988 15.2998 0.122039 15.378C0.200179 15.4561 0.30616 15.5 0.416667 15.5C0.458333 15.5 0.508333 15.5 0.55 15.475L5 13.75L10 15.5L14.7 13.9167C14.875 13.8333 15 13.7083 15 13.5167V0.916667C15 0.80616 14.9561 0.700179 14.878 0.622039C14.7998 0.543899 14.6938 0.5 14.5833 0.5Z" fill="white"/>
</svg>
