<svg width="14" height="18" viewBox="0 0 14 18" fill="none" xmlns="http://www.w3.org/2000/svg">
<path d="M6.66667 0.5C9.425 0.5 11.6667 2.71667 11.6667 5.45833C11.6667 9.175 6.66667 14.6667 6.66667 14.6667C6.66667 14.6667 1.66667 9.175 1.66667 5.45833C1.66667 2.71667 3.90833 0.5 6.66667 0.5ZM6.66667 3.83333C6.22464 3.83333 5.80072 4.00893 5.48816 4.32149C5.17559 4.63405 5 5.05797 5 5.5C5 5.94203 5.17559 6.36595 5.48816 6.67851C5.80072 6.99107 6.22464 7.16667 6.66667 7.16667C7.10869 7.16667 7.53262 6.99107 7.84518 6.67851C8.15774 6.36595 8.33333 5.94203 8.33333 5.5C8.33333 5.05797 8.15774 4.63405 7.84518 4.32149C7.53262 4.00893 7.10869 3.83333 6.66667 3.83333ZM13.3333 14.6667C13.3333 16.5083 10.35 18 6.66667 18C2.98333 18 0 16.5083 0 14.6667C0 13.5917 1.01667 12.6333 2.59167 12.025L3.125 12.7833C2.225 13.1583 1.66667 13.675 1.66667 14.25C1.66667 15.4 3.90833 16.3333 6.66667 16.3333C9.425 16.3333 11.6667 15.4 11.6667 14.25C11.6667 13.675 11.1083 13.1583 10.2083 12.7833L10.7417 12.025C12.3167 12.6333 13.3333 13.5917 13.3333 14.6667Z" fill="white"/>
</svg>
