<svg width="17" height="19" viewBox="0 0 17 19" fill="none" xmlns="http://www.w3.org/2000/svg">
<path d="M10 10.5H11.25V12.85L13.2833 14.025L12.6583 15.1083L10 13.575V10.5ZM13.3333 6.33333H1.66667V15.5H5.55833C5.2 14.7417 5 13.8917 5 13C5 11.4529 5.61458 9.96917 6.70854 8.87521C7.80251 7.78125 9.28624 7.16667 10.8333 7.16667C11.725 7.16667 12.575 7.36667 13.3333 7.725V6.33333ZM1.66667 17.1667C1.22464 17.1667 0.800716 16.9911 0.488155 16.6785C0.175595 16.3659 0 15.942 0 15.5V3.83333C0 2.90833 0.741667 2.16667 1.66667 2.16667H2.5V0.5H4.16667V2.16667H10.8333V0.5H12.5V2.16667H13.3333C13.7754 2.16667 14.1993 2.34226 14.5118 2.65482C14.8244 2.96738 15 3.39131 15 3.83333V8.91667C16.0333 9.96667 16.6667 11.4083 16.6667 13C16.6667 14.5471 16.0521 16.0308 14.9581 17.1248C13.8642 18.2188 12.3804 18.8333 10.8333 18.8333C9.24167 18.8333 7.8 18.2 6.75 17.1667H1.66667ZM10.8333 8.95833C9.76142 8.95833 8.7334 9.38415 7.97544 10.1421C7.21748 10.9001 6.79167 11.9281 6.79167 13C6.79167 15.2333 8.6 17.0417 10.8333 17.0417C11.3641 17.0417 11.8897 16.9371 12.38 16.734C12.8704 16.5309 13.3159 16.2332 13.6912 15.8579C14.0665 15.4826 14.3642 15.037 14.5673 14.5467C14.7705 14.0563 14.875 13.5308 14.875 13C14.875 10.7667 13.0667 8.95833 10.8333 8.95833Z" fill="#B29C46"/>
</svg>
