<svg width="16" height="18" viewBox="0 0 16 18" fill="none" xmlns="http://www.w3.org/2000/svg">
<path d="M14.2083 2.16667H10.725C10.375 1.2 9.45833 0.5 8.375 0.5C7.29167 0.5 6.375 1.2 6.025 2.16667H2.54167C1.625 2.16667 0.875 2.91667 0.875 3.83333V15.5C0.875 16.4167 1.625 17.1667 2.54167 17.1667H14.2083C15.125 17.1667 15.875 16.4167 15.875 15.5V3.83333C15.875 2.91667 15.125 2.16667 14.2083 2.16667ZM8.375 2.16667C8.83333 2.16667 9.20833 2.54167 9.20833 3C9.20833 3.45833 8.83333 3.83333 8.375 3.83333C7.91667 3.83333 7.54167 3.45833 7.54167 3C7.54167 2.54167 7.91667 2.16667 8.375 2.16667ZM4.20833 5.5H12.5417V3.83333H14.2083V15.5H2.54167V3.83333H4.20833V5.5ZM8.375 13.8333V12.1667H12.5417V13.8333H8.375ZM8.375 8.83333V7.16667H12.5417V8.83333H8.375ZM5.04167 9.66667V7.16667H4.20833V6.33333H5.875V9.66667H5.04167ZM6.08333 11.3333C6.425 11.3333 6.70833 11.6167 6.70833 11.9583C6.70833 12.125 6.64167 12.2833 6.53333 12.3917L5.14167 13.8333H6.70833V14.6667H4.20833V13.9L5.875 12.1667H4.20833V11.3333H6.08333Z" fill="#B29C46"/>
</svg>
