<svg width="16" height="18" viewBox="0 0 16 18" fill="none" xmlns="http://www.w3.org/2000/svg">
<path d="M14.1239 2.16667H10.6405C10.2905 1.2 9.37386 0.5 8.29053 0.5C7.20719 0.5 6.29053 1.2 5.94053 2.16667H2.45719C1.54053 2.16667 0.790527 2.91667 0.790527 3.83333V15.5C0.790527 16.4167 1.54053 17.1667 2.45719 17.1667H14.1239C15.0405 17.1667 15.7905 16.4167 15.7905 15.5V3.83333C15.7905 2.91667 15.0405 2.16667 14.1239 2.16667ZM8.29053 2.16667C8.74886 2.16667 9.12386 2.54167 9.12386 3C9.12386 3.45833 8.74886 3.83333 8.29053 3.83333C7.83219 3.83333 7.45719 3.45833 7.45719 3C7.45719 2.54167 7.83219 2.16667 8.29053 2.16667ZM4.12386 5.5H12.4572V3.83333H14.1239V15.5H2.45719V3.83333H4.12386V5.5ZM8.29053 13.8333V12.1667H12.4572V13.8333H8.29053ZM8.29053 8.83333V7.16667H12.4572V8.83333H8.29053ZM4.95719 9.66667V7.16667H4.12386V6.33333H5.79053V9.66667H4.95719ZM5.99886 11.3333C6.34053 11.3333 6.62386 11.6167 6.62386 11.9583C6.62386 12.125 6.55719 12.2833 6.44886 12.3917L5.05719 13.8333H6.62386V14.6667H4.12386V13.9L5.79053 12.1667H4.12386V11.3333H5.99886Z" fill="white"/>
</svg>
