<svg width="18" height="17" viewBox="0 0 18 17" fill="none" xmlns="http://www.w3.org/2000/svg">
<path d="M12.3252 0.5H3.99183C3.06683 0.5 2.32516 1.24167 2.32516 2.16667V7.01667C3.3469 6.03403 4.71291 5.49073 6.13043 5.50319C7.54795 5.51565 8.90419 6.08289 9.9085 7.08333C10.9212 8.10211 11.4896 9.48021 11.4896 10.9167C11.4896 12.3531 10.9212 13.7312 9.9085 14.75C9.6085 15.0417 9.28349 15.2833 8.94183 15.5H15.6585C16.5835 15.5 17.3252 14.7583 17.3252 13.8333V5.5L12.3252 0.5ZM11.4918 6.33333V1.75L16.0752 6.33333H11.4918ZM6.07516 7.16667C3.99183 7.16667 2.32516 8.83333 2.32516 10.9167C2.32516 11.65 2.5335 12.3417 2.90016 12.9167L0.333496 15.5L1.49183 16.6583L4.09183 14.1C4.66683 14.4583 5.35016 14.6667 6.07516 14.6667C8.1585 14.6667 9.82516 13 9.82516 10.9167C9.82516 8.83333 8.1585 7.16667 6.07516 7.16667ZM6.07516 13C5.52263 13 4.99272 12.7805 4.60202 12.3898C4.21132 11.9991 3.99183 11.4692 3.99183 10.9167C3.99183 10.3641 4.21132 9.83423 4.60202 9.44353C4.99272 9.05283 5.52263 8.83333 6.07516 8.83333C6.6277 8.83333 7.1576 9.05283 7.5483 9.44353C7.939 9.83423 8.1585 10.3641 8.1585 10.9167C8.1585 11.4692 7.939 11.9991 7.5483 12.3898C7.1576 12.7805 6.6277 13 6.07516 13Z" fill="black"/>
</svg>
