<svg width="20" height="19" viewBox="0 0 20 19" fill="none" xmlns="http://www.w3.org/2000/svg">
<path d="M6.02634 10.7059L1.83634 6.52595C1.08719 5.77464 0.666504 4.75694 0.666504 3.69595C0.666504 2.63496 1.08719 1.61726 1.83634 0.865949L8.85634 7.86595L6.02634 10.7059ZM12.8063 8.89595L11.3363 10.3659L18.2163 17.2459L16.8063 18.656L9.92634 11.7759L3.04634 18.656L1.63634 17.2459L11.3963 7.48595C10.6863 5.95595 11.1863 3.80595 12.7763 2.21595C14.6863 0.295949 17.4263 -0.0640505 18.8863 1.39595C20.3563 2.86595 19.9963 5.60595 18.0763 7.51595C16.4863 9.10595 14.3363 9.60595 12.8063 8.89595Z" fill="black"/>
</svg>
