<svg width="16" height="16" viewBox="0 0 16 16" fill="none" xmlns="http://www.w3.org/2000/svg">
<path d="M3.35016 6.99167C4.55016 9.35 6.4835 11.2833 8.84183 12.4833L10.6752 10.65C10.9085 10.4167 11.2335 10.35 11.5252 10.4417C12.4585 10.75 13.4585 10.9167 14.5002 10.9167C14.7212 10.9167 14.9331 11.0045 15.0894 11.1607C15.2457 11.317 15.3335 11.529 15.3335 11.75V14.6667C15.3335 14.8877 15.2457 15.0996 15.0894 15.2559C14.9331 15.4122 14.7212 15.5 14.5002 15.5C10.7429 15.5 7.13958 14.0074 4.48282 11.3507C1.82605 8.69391 0.333496 5.09057 0.333496 1.33333C0.333496 1.11232 0.421293 0.900358 0.577574 0.744078C0.733854 0.587797 0.945816 0.5 1.16683 0.5H4.0835C4.30451 0.5 4.51647 0.587797 4.67275 0.744078C4.82903 0.900358 4.91683 1.11232 4.91683 1.33333C4.91683 2.375 5.0835 3.375 5.39183 4.30833C5.4835 4.6 5.41683 4.925 5.1835 5.15833L3.35016 6.99167Z" fill="white"/>
</svg>
