<svg width="19" height="22" viewBox="0 0 19 22" fill="none" xmlns="http://www.w3.org/2000/svg">
<path d="M16.8205 6.89L18.2405 5.47C17.7905 4.96 17.3405 4.5 16.8305 4.06L15.4105 5.5C13.8605 4.24 11.9105 3.5 9.79053 3.5C7.40358 3.5 5.11439 4.44821 3.42657 6.13604C1.73874 7.82387 0.790527 10.1131 0.790527 12.5C0.790527 14.8869 1.73874 17.1761 3.42657 18.864C5.11439 20.5518 7.40358 21.5 9.79053 21.5C14.7905 21.5 18.7905 17.47 18.7905 12.5C18.7905 10.38 18.0505 8.43 16.8205 6.89ZM10.7905 13.5H8.79053V6.5H10.7905V13.5ZM12.7905 0.5H6.79053V2.5H12.7905V0.5Z" fill="black"/>
</svg>
