<svg width="48" height="48" viewBox="0 0 48 48" fill="none" xmlns="http://www.w3.org/2000/svg">
<path d="M47.5604 6.80332L41.1966 0.439461C40.6106 -0.146487 39.6609 -0.146487 39.075 0.439461L36.9534 2.56106C36.3674 3.14701 36.3674 4.09671 36.9534 4.68266L29.7654 11.8706C25.3985 10.0237 20.1653 10.8646 16.6055 14.4235L1.75714 29.2718C-0.585713 31.6147 -0.585713 35.4144 1.75714 37.7573L10.2426 46.2427C12.5854 48.5856 16.3852 48.5856 18.7281 46.2427L33.5774 31.3934C37.1362 27.8346 37.9771 22.6005 36.1302 18.2335L43.3182 11.0456C43.9041 11.6315 44.8538 11.6315 45.4398 11.0456L47.5614 8.92398C48.1464 8.33897 48.1464 7.38927 47.5604 6.80332ZM16.8015 39.6839L8.316 31.1984L19.7574 19.757L28.2429 28.2424L16.8015 39.6839Z" fill="white"/>
</svg>
