<svg width="48" height="48" viewBox="0 0 48 48" fill="none" xmlns="http://www.w3.org/2000/svg">
<path d="M45.8067 2.19367C44.4029 0.790331 42.4992 0.00197981 40.5143 0.00197981C38.5294 0.00197981 36.6258 0.790331 35.222 2.19367L2.28527 35.1304C1.57032 35.8209 1.00005 36.6469 0.607734 37.5602C0.21542 38.4735 0.00891966 39.4557 0.000282633 40.4497C-0.0083544 41.4436 0.181045 42.4293 0.557428 43.3493C0.933812 44.2692 1.48964 45.105 2.19249 45.8078C2.89533 46.5107 3.73112 47.0665 4.65107 47.4429C5.57103 47.8193 6.55673 48.0087 7.55067 48C8.5446 47.9914 9.52686 47.7849 10.4401 47.3926C11.3534 47.0003 12.1794 46.43 12.8699 45.7151L45.8067 12.7783C47.21 11.3746 47.9983 9.47092 47.9983 7.486C47.9983 5.50108 47.21 3.59743 45.8067 2.19367ZM41.1347 11.1006C39.3007 12.9337 37.6239 13.2219 36.2756 13.453C35.0648 13.6616 34.189 13.8113 33.0287 14.9716C31.8684 16.1319 31.7187 17.0077 31.5101 18.2194C31.278 19.5669 30.9908 21.2446 29.1568 23.0776C27.3228 24.9107 25.646 25.1988 24.2986 25.4309C23.0869 25.6386 22.212 25.7883 21.0517 26.9486C19.8915 28.1089 19.7417 28.9838 19.5331 30.1955C19.302 31.5429 19.0147 33.2206 17.1807 35.0537C15.3467 36.8867 13.669 37.1758 12.3216 37.407C11.1108 37.6156 10.235 37.7653 9.07473 38.9256C8.79393 39.2064 8.41309 39.3641 8.01598 39.3641C7.61887 39.3641 7.23803 39.2064 6.95723 38.9256C6.67644 38.6448 6.51869 38.264 6.51869 37.8669C6.51869 37.4697 6.67644 37.0889 6.95723 36.8081C8.79121 34.9751 10.468 34.6869 11.8154 34.4557C13.0318 34.248 13.902 34.0983 15.0632 32.9371C16.2244 31.7759 16.3732 30.902 16.5809 29.6902C16.813 28.3428 17.1002 26.6651 18.9342 24.8321C20.7682 22.999 22.445 22.7108 23.7924 22.4797C25.0088 22.272 25.879 22.1213 27.0393 20.961C28.1996 19.8008 28.3493 18.925 28.5589 17.7132C28.79 16.3658 29.0772 14.6881 30.9112 12.8551C32.7452 11.022 34.422 10.7329 35.7694 10.5018C36.9811 10.2931 37.856 10.1443 39.0172 8.98312C39.298 8.70233 39.6788 8.54458 40.076 8.54458C40.4731 8.54458 40.8539 8.70233 41.1347 8.98312C41.4155 9.26392 41.5732 9.64476 41.5732 10.0419C41.5732 10.439 41.4155 10.8198 41.1347 11.1006ZM3.03383 30.1468L30.2384 2.94223L29.1586 1.86149C26.8194 -0.477763 23.1842 -0.633089 21.0377 1.51341L1.60502 20.9461C-0.541486 23.0926 -0.385223 26.7278 1.9531 29.0661L3.03383 30.1468ZM45.0581 17.7619L17.8535 44.9665L18.9333 46.0472C21.2725 48.3865 24.9077 48.5418 27.0543 46.3953L46.4869 26.9626C48.6334 24.8161 48.4772 21.1809 46.1388 18.8417L45.0581 17.7619Z" fill="white"/>
</svg>
