<svg width="22" height="21" viewBox="0 0 22 21" fill="none" xmlns="http://www.w3.org/2000/svg">
<path d="M5.27 15.55C5.64612 15.984 5.88938 16.517 5.9707 17.0855C6.05202 17.654 5.96797 18.2338 5.72859 18.7558C5.48921 19.2778 5.10463 19.7199 4.62077 20.0291C4.13692 20.3384 3.57426 20.5019 3 20.5C1.34 20.5 0 19.16 0 17.5C0 15.84 1.34 14.5 3 14.5C3.18 14.5 3.36 14.5 3.53 14.55L6.6 9.19002L4.86 8.20002L8.95 7.08002L10.07 11.17L8.33 10.18L5.27 15.55ZM19 14.5C17.7 14.5 16.6 15.34 16.18 16.5H10V14.5L7 17.5L10 20.5V18.5H16.18C16.6 19.66 17.7 20.5 19 20.5C20.66 20.5 22 19.16 22 17.5C22 15.84 20.66 14.5 19 14.5ZM11 6.50002C11.18 6.50002 11.36 6.50002 11.53 6.45002L14.6 11.81L12.86 12.8L16.95 13.92L18.07 9.83002L16.33 10.82L13.27 5.45002C13.6461 5.01607 13.8894 4.48303 13.9707 3.91455C14.052 3.34608 13.968 2.76621 13.7286 2.24422C13.4892 1.72223 13.1046 1.28018 12.6208 0.970888C12.1369 0.661594 11.5743 0.498128 11 0.500016C9.34 0.500016 8 1.84002 8 3.50002C8 5.16002 9.34 6.50002 11 6.50002Z" fill="white"/>
</svg>
