<svg width="51" height="51" viewBox="0 0 51 51" fill="none" xmlns="http://www.w3.org/2000/svg">
<path d="M25.0112 13.0141C17.9153 13.0141 12.1918 18.7377 12.1918 25.8335C12.1918 32.9293 17.9153 38.6529 25.0112 38.6529C32.107 38.6529 37.8305 32.9293 37.8305 25.8335C37.8305 18.7377 32.107 13.0141 25.0112 13.0141ZM25.0112 34.1678C20.4256 34.1678 16.6769 30.4302 16.6769 25.8335C16.6769 21.2368 20.4145 17.4992 25.0112 17.4992C29.6078 17.4992 33.3454 21.2368 33.3454 25.8335C33.3454 30.4302 29.5967 34.1678 25.0112 34.1678ZM41.345 12.4897C41.345 14.1521 40.0061 15.4798 38.3549 15.4798C36.6925 15.4798 35.3648 14.141 35.3648 12.4897C35.3648 10.8385 36.7037 9.49968 38.3549 9.49968C40.0061 9.49968 41.345 10.8385 41.345 12.4897ZM49.8354 15.5244C49.6458 11.5191 48.7309 7.97117 45.7966 5.04804C42.8735 2.12492 39.3256 1.21004 35.3202 1.00922C31.1921 0.774922 18.819 0.774922 14.691 1.00922C10.6968 1.19889 7.14883 2.11376 4.21455 5.03689C1.28026 7.96002 0.376548 11.5079 0.175722 15.5133C-0.0585741 19.6414 -0.0585741 32.0145 0.175722 36.1425C0.365391 40.1479 1.28026 43.6958 4.21455 46.6189C7.14883 49.5421 10.6856 50.4569 14.691 50.6578C18.819 50.8921 31.1921 50.8921 35.3202 50.6578C39.3256 50.4681 42.8735 49.5532 45.7966 46.6189C48.7197 43.6958 49.6346 40.1479 49.8354 36.1425C50.0697 32.0145 50.0697 19.6525 49.8354 15.5244ZM44.5024 40.5719C43.6322 42.7586 41.9475 44.4433 39.7495 45.3247C36.4582 46.6301 28.6483 46.3289 25.0112 46.3289C21.374 46.3289 13.5529 46.6189 10.2728 45.3247C8.08602 44.4545 6.40132 42.7698 5.51992 40.5719C4.21455 37.2806 4.51579 29.4707 4.51579 25.8335C4.51579 22.1963 4.22571 14.3753 5.51992 11.0951C6.39016 8.90836 8.07486 7.22366 10.2728 6.34225C13.5641 5.03689 21.374 5.33813 25.0112 5.33813C28.6483 5.33813 36.4694 5.04804 39.7495 6.34225C41.9363 7.2125 43.621 8.8972 44.5024 11.0951C45.8078 14.3864 45.5065 22.1963 45.5065 25.8335C45.5065 29.4707 45.8078 37.2917 44.5024 40.5719Z" fill="black"/>
</svg>
