<svg width="14" height="21" viewBox="0 0 14 21" fill="none" xmlns="http://www.w3.org/2000/svg">
<path d="M5 6.5C5 6.23478 5.10536 5.98043 5.29289 5.79289C5.48043 5.60536 5.73478 5.5 6 5.5C6.26522 5.5 6.51957 5.60536 6.70711 5.79289C6.89464 5.98043 7 6.23478 7 6.5V10.97L8.21 11.1L13.15 13.29C13.68 13.53 14 14.06 14 14.64V19C13.97 19.82 13.32 20.47 12.5 20.5H6C5.62 20.5 5.26 20.35 5 20.07L0.0999999 15.87L0.84 15.1C1.03 14.89 1.3 14.78 1.58 14.78H1.8L5 16.5V6.5ZM6 2.5C7.06087 2.5 8.07828 2.92143 8.82843 3.67157C9.57857 4.42172 10 5.43913 10 6.5C10 8 9.2 9.27 8 9.96V8.74C8.61 8.19 9 7.39 9 6.5C9 5.70435 8.68393 4.94129 8.12132 4.37868C7.55871 3.81607 6.79565 3.5 6 3.5C5.20435 3.5 4.44129 3.81607 3.87868 4.37868C3.31607 4.94129 3 5.70435 3 6.5C3 7.39 3.39 8.19 4 8.74V9.96C2.8 9.27 2 8 2 6.5C2 5.43913 2.42143 4.42172 3.17157 3.67157C3.92172 2.92143 4.93913 2.5 6 2.5ZM6 0.5C7.5913 0.5 9.11742 1.13214 10.2426 2.25736C11.3679 3.38258 12 4.9087 12 6.5C12 8.2 11.29 9.73 10.16 10.83L9.16 10.38C9.73463 9.90966 10.1977 9.31767 10.5159 8.64672C10.8341 7.97577 10.9994 7.24257 11 6.5C11 5.17392 10.4732 3.90215 9.53553 2.96447C8.59785 2.02678 7.32608 1.5 6 1.5C4.67392 1.5 3.40215 2.02678 2.46447 2.96447C1.52678 3.90215 1 5.17392 1 6.5C1 8.55 2.23 10.31 4 11.08V12.16C1.67 11.33 0 9.11 0 6.5C0 4.9087 0.632141 3.38258 1.75736 2.25736C2.88258 1.13214 4.4087 0.5 6 0.5Z" fill="white"/>
</svg>
