<svg width="62" height="56" viewBox="0 0 62 56" fill="none" xmlns="http://www.w3.org/2000/svg">
<path d="M0 24.0714H26.5714V0.5H0V24.0714ZM8.85714 8.35714H17.7143V16.2143H8.85714V8.35714ZM35.4286 0.5V24.0714H62V0.5H35.4286ZM53.1429 16.2143H44.2857V8.35714H53.1429V16.2143ZM0 55.5H26.5714V31.9286H0V55.5ZM8.85714 39.7857H17.7143V47.6429H8.85714V39.7857ZM57.5714 31.9286H62V47.6429H48.7143V43.7143H44.2857V55.5H35.4286V31.9286H48.7143V35.8571H57.5714V31.9286ZM57.5714 51.5714H62V55.5H57.5714V51.5714ZM48.7143 51.5714H53.1429V55.5H48.7143V51.5714Z" fill="black"/>
</svg>
