<svg width="48" height="48" viewBox="0 0 48 48" fill="none" xmlns="http://www.w3.org/2000/svg">
<path d="M27.9543 14.6824C23.0132 12.2728 17.2189 13.6979 13.8717 17.7576L19.0472 22.933C19.6379 23.5237 19.6379 24.4706 19.0472 25.0519C18.7566 25.3425 18.3721 25.4926 17.9877 25.4926C17.6033 25.4926 17.2189 25.3425 16.9283 25.0519L12.2215 20.3453L0.211016 44.9753C-0.0608848 45.5378 -0.0796366 46.2222 0.211016 46.8223C0.717315 47.863 1.98306 48.2943 3.02379 47.788L15.55 41.675L10.9371 37.0622C10.3464 36.4809 10.3464 35.5246 10.9371 34.9433C11.5277 34.362 12.4747 34.362 13.056 34.9433L18.4003 40.2874L27.9637 35.6183C30.2139 34.5214 32.136 32.6837 33.3173 30.2648C36.1395 24.48 33.7393 17.5044 27.9543 14.6824ZM36.5895 11.4102C38.4178 7.59432 37.4709 3.08461 33.7486 0C29.0325 3.90967 28.8263 10.0789 33.0079 14.2417L33.758 14.9918C37.9209 19.1733 44.0996 18.9671 48 14.2511C44.9153 10.5289 40.4055 9.58197 36.5895 11.4102Z" fill="black"/>
</svg>
