<svg width="48" height="49" viewBox="0 0 48 49" fill="none" xmlns="http://www.w3.org/2000/svg">
<path d="M45.8067 3.02668C44.4029 1.62334 42.4992 0.834988 40.5143 0.834988C38.5294 0.834988 36.6258 1.62334 35.222 3.02668L2.28527 35.9634C1.57032 36.6539 1.00005 37.4799 0.607734 38.3932C0.21542 39.3065 0.00891966 40.2887 0.000282633 41.2827C-0.0083544 42.2766 0.181045 43.2623 0.557428 44.1823C0.933812 45.1022 1.48964 45.938 2.19249 46.6408C2.89533 47.3437 3.73112 47.8995 4.65107 48.2759C5.57103 48.6523 6.55673 48.8417 7.55067 48.8331C8.5446 48.8244 9.52686 48.6179 10.4401 48.2256C11.3534 47.8333 12.1794 47.263 12.8699 46.5481L45.8067 13.6113C47.21 12.2076 47.9983 10.3039 47.9983 8.31901C47.9983 6.33409 47.21 4.43044 45.8067 3.02668ZM41.1347 11.9336C39.3007 13.7667 37.6239 14.0549 36.2756 14.286C35.0648 14.4946 34.189 14.6444 33.0287 15.8046C31.8684 16.9649 31.7187 17.8407 31.5101 19.0524C31.278 20.3999 30.9908 22.0776 29.1568 23.9106C27.3228 25.7437 25.646 26.0319 24.2986 26.2639C23.0869 26.4716 22.212 26.6213 21.0517 27.7816C19.8915 28.9419 19.7417 29.8168 19.5331 31.0285C19.302 32.3759 19.0147 34.0536 17.1807 35.8867C15.3467 37.7197 13.669 38.0088 12.3216 38.24C11.1108 38.4486 10.235 38.5983 9.07473 39.7586C8.79393 40.0394 8.41309 40.1972 8.01598 40.1972C7.61887 40.1972 7.23803 40.0394 6.95723 39.7586C6.67644 39.4778 6.51869 39.097 6.51869 38.6999C6.51869 38.3028 6.67644 37.9219 6.95723 37.6411C8.79121 35.8081 10.468 35.5199 11.8154 35.2888C13.0318 35.081 13.902 34.9313 15.0632 33.7701C16.2244 32.6089 16.3732 31.735 16.5809 30.5232C16.813 29.1758 17.1002 27.4981 18.9342 25.6651C20.7682 23.832 22.445 23.5438 23.7924 23.3127C25.0088 23.105 25.879 22.9543 27.0393 21.7941C28.1996 20.6338 28.3493 19.758 28.5589 18.5462C28.79 17.1988 29.0772 15.5211 30.9112 13.6881C32.7452 11.855 34.422 11.5659 35.7694 11.3348C36.9811 11.1261 37.856 10.9773 39.0172 9.81613C39.298 9.53533 39.6788 9.37758 40.076 9.37758C40.4731 9.37758 40.8539 9.53533 41.1347 9.81613C41.4155 10.0969 41.5732 10.4778 41.5732 10.8749C41.5732 11.272 41.4155 11.6528 41.1347 11.9336ZM3.03383 30.9798L30.2384 3.77524L29.1586 2.6945C26.8194 0.355245 23.1842 0.199919 21.0377 2.34642L1.60502 21.7791C-0.541486 23.9256 -0.385223 27.5608 1.9531 29.8991L3.03383 30.9798ZM45.0581 18.5949L17.8535 45.7995L18.9333 46.8802C21.2725 49.2195 24.9077 49.3748 27.0543 47.2283L46.4869 27.7957C48.6334 25.6492 48.4772 22.0139 46.1388 19.6747L45.0581 18.5949Z" fill="white"/>
</svg>
