<svg width="19" height="19" viewBox="0 0 19 19" fill="none" xmlns="http://www.w3.org/2000/svg">
<path d="M18.7893 7.62H12.0093L14.7493 4.8C12.0193 2.1 7.59931 2 4.86931 4.7C4.22071 5.34059 3.70574 6.10358 3.35427 6.94471C3.0028 7.78584 2.82181 8.68839 2.82181 9.6C2.82181 10.5116 3.0028 11.4142 3.35427 12.2553C3.70574 13.0964 4.22071 13.8594 4.86931 14.5C7.59931 17.2 12.0193 17.2 14.7493 14.5C16.1093 13.15 16.7893 11.58 16.7893 9.6H18.7893C18.7893 11.58 17.9093 14.15 16.1493 15.89C12.6393 19.37 6.93931 19.37 3.42931 15.89C-0.0706892 12.42 -0.100689 6.78 3.40931 3.31C5.09222 1.64275 7.36536 0.707398 9.73431 0.707398C12.1033 0.707398 14.3764 1.64275 16.0593 3.31L18.7893 0.5V7.62ZM10.2893 5.5V9.75L13.7893 11.83L13.0693 13.04L8.78931 10.5V5.5H10.2893Z" fill="#B29C46"/>
</svg>
