<svg width="48" height="43" viewBox="0 0 48 43" fill="none" xmlns="http://www.w3.org/2000/svg">
<path d="M43.5 21.833H4.5C3.30653 21.833 2.16193 22.3071 1.31802 23.151C0.474106 23.9949 0 25.1395 0 26.333C0 27.5265 0.474106 28.6711 1.31802 29.515C2.16193 30.3589 3.30653 30.833 4.5 30.833H43.5C44.6935 30.833 45.8381 30.3589 46.682 29.515C47.5259 28.6711 48 27.5265 48 26.333C48 25.1395 47.5259 23.9949 46.682 23.151C45.8381 22.3071 44.6935 21.833 43.5 21.833ZM45 33.833H3C2.60218 33.833 2.22064 33.991 1.93934 34.2723C1.65804 34.5536 1.5 34.9352 1.5 35.333V36.833C1.5 38.4243 2.13214 39.9504 3.25736 41.0756C4.38258 42.2009 5.9087 42.833 7.5 42.833H40.5C42.0913 42.833 43.6174 42.2009 44.7426 41.0756C45.8679 39.9504 46.5 38.4243 46.5 36.833V35.333C46.5 34.9352 46.342 34.5536 46.0607 34.2723C45.7794 33.991 45.3978 33.833 45 33.833ZM5.4975 18.833H42.5025C45.7434 18.833 47.6231 14.7174 45.7669 11.7193C42 5.63301 33.7078 0.842383 24 0.833008C14.2931 0.842383 6 5.63301 2.23312 11.7183C0.375 14.7164 2.25656 18.833 5.4975 18.833ZM36 8.33301C36.2967 8.33301 36.5867 8.42098 36.8334 8.5858C37.08 8.75063 37.2723 8.98489 37.3858 9.25898C37.4994 9.53307 37.5291 9.83467 37.4712 10.1256C37.4133 10.4166 37.2704 10.6839 37.0607 10.8937C36.8509 11.1034 36.5836 11.2463 36.2926 11.3042C36.0017 11.3621 35.7001 11.3324 35.426 11.2188C35.1519 11.1053 34.9176 10.913 34.7528 10.6664C34.588 10.4197 34.5 10.1297 34.5 9.83301C34.5 9.43518 34.658 9.05365 34.9393 8.77235C35.2206 8.49104 35.6022 8.33301 36 8.33301ZM24 5.33301C24.2967 5.33301 24.5867 5.42098 24.8334 5.5858C25.08 5.75063 25.2723 5.98489 25.3858 6.25898C25.4994 6.53307 25.5291 6.83467 25.4712 7.12564C25.4133 7.41661 25.2704 7.68389 25.0607 7.89367C24.8509 8.10345 24.5836 8.24631 24.2926 8.30419C24.0017 8.36206 23.7001 8.33236 23.426 8.21883C23.1519 8.1053 22.9176 7.91304 22.7528 7.66636C22.588 7.41969 22.5 7.12968 22.5 6.83301C22.5 6.43518 22.658 6.05365 22.9393 5.77235C23.2206 5.49104 23.6022 5.33301 24 5.33301ZM12 8.33301C12.2967 8.33301 12.5867 8.42098 12.8334 8.5858C13.08 8.75063 13.2723 8.98489 13.3858 9.25898C13.4994 9.53307 13.5291 9.83467 13.4712 10.1256C13.4133 10.4166 13.2704 10.6839 13.0607 10.8937C12.8509 11.1034 12.5836 11.2463 12.2926 11.3042C12.0017 11.3621 11.7001 11.3324 11.426 11.2188C11.1519 11.1053 10.9176 10.913 10.7528 10.6664C10.588 10.4197 10.5 10.1297 10.5 9.83301C10.5 9.43518 10.658 9.05365 10.9393 8.77235C11.2206 8.49104 11.6022 8.33301 12 8.33301Z" fill="white"/>
</svg>
