<svg width="48" height="49" viewBox="0 0 48 49" fill="none" xmlns="http://www.w3.org/2000/svg">
<path d="M27.9543 15.5154C23.0132 13.1058 17.2189 14.5309 13.8717 18.5906L19.0472 23.766C19.6379 24.3567 19.6379 25.3036 19.0472 25.8849C18.7566 26.1755 18.3721 26.3256 17.9877 26.3256C17.6033 26.3256 17.2189 26.1755 16.9283 25.8849L12.2215 21.1783L0.211016 45.8083C-0.0608848 46.3708 -0.0796366 47.0553 0.211016 47.6553C0.717315 48.696 1.98306 49.1273 3.02379 48.621L15.55 42.508L10.9371 37.8952C10.3464 37.3139 10.3464 36.3576 10.9371 35.7763C11.5277 35.195 12.4747 35.195 13.056 35.7763L18.4003 41.1204L27.9637 36.4513C30.2139 35.3544 32.136 33.5167 33.3173 31.0978C36.1395 25.313 33.7393 18.3375 27.9543 15.5154ZM36.5895 12.2432C38.4178 8.42733 37.4709 3.91762 33.7486 0.833008C29.0325 4.74268 28.8263 10.9119 33.0079 15.0747L33.758 15.8248C37.9209 20.0063 44.0996 19.8001 48 15.0841C44.9153 11.3619 40.4055 10.415 36.5895 12.2432Z" fill="#B29C46"/>
</svg>
