<svg width="24" height="15" viewBox="0 0 24 15" fill="none" xmlns="http://www.w3.org/2000/svg">
<path d="M18.4395 12.8335V14.8335H6.43945V12.8335C6.43945 12.8335 6.43945 8.8335 12.4395 8.8335C18.4395 8.8335 18.4395 12.8335 18.4395 12.8335ZM15.4395 3.8335C15.4395 3.24015 15.2635 2.66013 14.9339 2.16679C14.6042 1.67344 14.1357 1.28892 13.5875 1.06186C13.0393 0.834796 12.4361 0.775386 11.8542 0.891142C11.2722 1.0069 10.7377 1.29262 10.3181 1.71218C9.89857 2.13173 9.61285 2.66628 9.4971 3.24823C9.38134 3.83017 9.44075 4.43337 9.66781 4.98155C9.89488 5.52973 10.2794 5.99826 10.7727 6.32791C11.2661 6.65755 11.8461 6.8335 12.4395 6.8335C13.2351 6.8335 13.9982 6.51743 14.5608 5.95482C15.1234 5.39221 15.4395 4.62915 15.4395 3.8335ZM18.6395 8.8935C19.1861 9.3978 19.6268 10.0059 19.9358 10.6824C20.2449 11.3589 20.4161 12.0901 20.4395 12.8335V14.8335H23.4395V12.8335C23.4395 12.8335 23.4395 9.3835 18.6395 8.8935ZM17.4395 0.833497C17.1373 0.833678 16.8371 0.880911 16.5495 0.973497C17.1345 1.81247 17.4482 2.81068 17.4482 3.8335C17.4482 4.85631 17.1345 5.85453 16.5495 6.6935C16.8371 6.78608 17.1373 6.83332 17.4395 6.8335C18.2351 6.8335 18.9982 6.51743 19.5608 5.95482C20.1234 5.39221 20.4395 4.62915 20.4395 3.8335C20.4395 3.03785 20.1234 2.27479 19.5608 1.71218C18.9982 1.14957 18.2351 0.833497 17.4395 0.833497ZM6.77945 4.7535L7.93945 6.1635L3.18945 10.9135L0.439453 7.9135L1.59945 6.7535L3.18945 8.3335L6.77945 4.7535Z" fill="black"/>
</svg>
