<svg width="40" height="41" viewBox="0 0 40 41" fill="none" xmlns="http://www.w3.org/2000/svg">
<path d="M23.3333 11.458V0.833008H2.5C1.11458 0.833008 0 1.66895 0 2.70801V38.958C0 39.9971 1.11458 40.833 2.5 40.833H37.5C38.8854 40.833 40 39.9971 40 38.958V13.333H25.8333C24.4583 13.333 23.3333 12.4893 23.3333 11.458ZM29.5938 19.7783L23.3333 27.083L29.5938 34.3877C30.125 35.0127 29.5313 35.833 28.5417 35.833H24.9063C24.4479 35.833 24.0208 35.6455 23.8021 35.3408C21.7604 32.5127 20 29.9736 20 29.9736C19.3333 31.1299 18.9583 31.5361 16.1875 35.3486C15.9688 35.6533 15.5521 35.8408 15.0938 35.8408H11.4583C10.4688 35.8408 9.875 35.0205 10.4063 34.3955L16.6875 27.0908L10.4063 19.7861C9.86458 19.1611 10.4688 18.3408 11.4583 18.3408H15.0833C15.5417 18.3408 15.9688 18.5283 16.1875 18.833C18.9062 22.6455 18.2708 21.458 20 24.1846C20 24.1846 20.6354 23.2705 23.8125 18.833C24.0313 18.5283 24.4583 18.3408 24.9167 18.3408H28.5417C29.5313 18.333 30.125 19.1533 29.5938 19.7783ZM40 10.3564V10.833H26.6667V0.833008H27.3021C27.9688 0.833008 28.6042 1.02832 29.0729 1.37988L39.2708 9.03613C39.7396 9.3877 40 9.86426 40 10.3564Z" fill="black"/>
</svg>
