<svg width="48" height="42" viewBox="0 0 48 42" fill="none" xmlns="http://www.w3.org/2000/svg">
<path d="M43.5 21H4.5C3.30653 21 2.16193 21.4741 1.31802 22.318C0.474106 23.1619 0 24.3065 0 25.5C0 26.6935 0.474106 27.8381 1.31802 28.682C2.16193 29.5259 3.30653 30 4.5 30H43.5C44.6935 30 45.8381 29.5259 46.682 28.682C47.5259 27.8381 48 26.6935 48 25.5C48 24.3065 47.5259 23.1619 46.682 22.318C45.8381 21.4741 44.6935 21 43.5 21ZM45 33H3C2.60218 33 2.22064 33.158 1.93934 33.4393C1.65804 33.7206 1.5 34.1022 1.5 34.5V36C1.5 37.5913 2.13214 39.1174 3.25736 40.2426C4.38258 41.3679 5.9087 42 7.5 42H40.5C42.0913 42 43.6174 41.3679 44.7426 40.2426C45.8679 39.1174 46.5 37.5913 46.5 36V34.5C46.5 34.1022 46.342 33.7206 46.0607 33.4393C45.7794 33.158 45.3978 33 45 33ZM5.4975 18H42.5025C45.7434 18 47.6231 13.8844 45.7669 10.8862C42 4.8 33.7078 0.009375 24 0C14.2931 0.009375 6 4.8 2.23312 10.8853C0.375 13.8834 2.25656 18 5.4975 18ZM36 7.5C36.2967 7.5 36.5867 7.58797 36.8334 7.7528C37.08 7.91762 37.2723 8.15189 37.3858 8.42597C37.4994 8.70006 37.5291 9.00166 37.4712 9.29263C37.4133 9.58361 37.2704 9.85088 37.0607 10.0607C36.8509 10.2704 36.5836 10.4133 36.2926 10.4712C36.0017 10.5291 35.7001 10.4994 35.426 10.3858C35.1519 10.2723 34.9176 10.08 34.7528 9.83336C34.588 9.58668 34.5 9.29667 34.5 9C34.5 8.60218 34.658 8.22064 34.9393 7.93934C35.2206 7.65804 35.6022 7.5 36 7.5ZM24 4.5C24.2967 4.5 24.5867 4.58797 24.8334 4.7528C25.08 4.91762 25.2723 5.15189 25.3858 5.42597C25.4994 5.70006 25.5291 6.00166 25.4712 6.29264C25.4133 6.58361 25.2704 6.85088 25.0607 7.06066C24.8509 7.27044 24.5836 7.4133 24.2926 7.47118C24.0017 7.52906 23.7001 7.49935 23.426 7.38582C23.1519 7.27229 22.9176 7.08003 22.7528 6.83335C22.588 6.58668 22.5 6.29667 22.5 6C22.5 5.60218 22.658 5.22064 22.9393 4.93934C23.2206 4.65804 23.6022 4.5 24 4.5ZM12 7.5C12.2967 7.5 12.5867 7.58797 12.8334 7.7528C13.08 7.91762 13.2723 8.15189 13.3858 8.42597C13.4994 8.70006 13.5291 9.00166 13.4712 9.29263C13.4133 9.58361 13.2704 9.85088 13.0607 10.0607C12.8509 10.2704 12.5836 10.4133 12.2926 10.4712C12.0017 10.5291 11.7001 10.4994 11.426 10.3858C11.1519 10.2723 10.9176 10.08 10.7528 9.83336C10.588 9.58668 10.5 9.29667 10.5 9C10.5 8.60218 10.658 8.22064 10.9393 7.93934C11.2206 7.65804 11.6022 7.5 12 7.5Z" fill="white"/>
</svg>
