<svg width="21" height="17" viewBox="0 0 21 17" fill="none" xmlns="http://www.w3.org/2000/svg">
<path d="M0.789062 0.5V12.5H11.1091C10.8966 11.8546 10.7886 11.1795 10.7891 10.5H4.78906C4.78906 9.96957 4.57835 9.46086 4.20328 9.08579C3.8282 8.71071 3.3195 8.5 2.78906 8.5V4.5C3.89906 4.5 4.78906 3.61 4.78906 2.5H14.7891C14.7891 3.03043 14.9998 3.53914 15.3748 3.91421C15.7499 4.28929 16.2586 4.5 16.7891 4.5V4.56C17.4591 4.56 18.1291 4.68 18.7891 4.9V0.5H0.789062ZM9.78906 3.5C8.08906 3.53 6.78906 4.8 6.78906 6.5C6.78906 8.2 8.08906 9.44 9.78906 9.5C10.1691 9.5 10.5591 9.42 10.9291 9.27C11.1991 8.17 11.6491 7.13 12.7591 6.11C12.6391 4.78 11.3791 3.47 9.78906 3.5ZM16.7891 5.5L19.0391 7.75L16.7891 10V8.5C14.9391 8.5 13.7291 10.46 14.5491 12.12L13.4591 13.21C11.6991 10.55 13.5991 7 16.7891 7V5.5ZM16.7891 16.5L14.5391 14.25L16.7891 12V13.5C18.6391 13.5 19.8491 11.54 19.0291 9.88L20.1191 8.79C21.8791 11.45 19.9791 15 16.7891 15V16.5Z" fill="white"/>
</svg>
