<svg width="48" height="49" viewBox="0 0 48 49" fill="none" xmlns="http://www.w3.org/2000/svg">
<path d="M14.8931 0.847344C13.378 0.704839 11.968 1.63675 11.5808 3.10867L10.1923 8.38416C27.7823 8.89887 39.6814 20.6293 40.4258 38.1039L45.7641 36.6245C47.2379 36.2157 48.1539 34.7794 47.9786 33.2588C46.021 16.3101 31.9477 2.45709 14.8931 0.847344ZM9.41135 11.3477L0.0500897 46.9261C-0.0179636 47.1846 -0.0166509 47.4564 0.0538955 47.7142C0.124442 47.972 0.261727 48.2066 0.451901 48.3944C0.642075 48.5822 0.878413 48.7165 1.13707 48.7838C1.39573 48.8511 1.66757 48.849 1.92515 48.7777L37.4576 38.9243C37.0573 22.5278 25.9185 11.5352 9.41135 11.3515V11.3477ZM11.9989 39.8346C11.4056 39.8346 10.8255 39.6587 10.3322 39.329C9.8388 38.9993 9.45427 38.5308 9.2272 37.9826C9.00013 37.4344 8.94072 36.8312 9.05648 36.2492C9.17224 35.6673 9.45797 35.1327 9.87754 34.7131C10.2971 34.2935 10.8317 34.0078 11.4136 33.892C11.9956 33.7763 12.5988 33.8357 13.147 34.0628C13.6952 34.2898 14.1638 34.6744 14.4934 35.1677C14.8231 35.6611 14.999 36.2411 14.999 36.8345C14.999 37.6302 14.683 38.3933 14.1203 38.9559C13.5577 39.5185 12.7946 39.8346 11.9989 39.8346ZM16.4991 25.5841C15.9057 25.5841 15.3257 25.4082 14.8323 25.0785C14.339 24.7489 13.9544 24.2803 13.7274 23.7321C13.5003 23.1839 13.4409 22.5807 13.5566 21.9987C13.6724 21.4168 13.9581 20.8822 14.3777 20.4626C14.7973 20.0431 15.3318 19.7573 15.9138 19.6416C16.4958 19.5258 17.099 19.5852 17.6472 19.8123C18.1954 20.0394 18.6639 20.4239 18.9936 20.9173C19.3232 21.4106 19.4992 21.9907 19.4992 22.584C19.4992 23.3797 19.1831 24.1428 18.6205 24.7054C18.0578 25.268 17.2948 25.5841 16.4991 25.5841ZM26.2494 35.3345C25.6561 35.3345 25.076 35.1585 24.5827 34.8288C24.0893 34.4992 23.7048 34.0306 23.4777 33.4824C23.2506 32.9342 23.1912 32.331 23.307 31.7491C23.4227 31.1671 23.7085 30.6325 24.128 30.213C24.5476 29.7934 25.0822 29.5077 25.6641 29.3919C26.2461 29.2761 26.8493 29.3355 27.3975 29.5626C27.9457 29.7897 28.4143 30.1742 28.7439 30.6676C29.0736 31.1609 29.2495 31.741 29.2495 32.3344C29.2495 33.13 28.9334 33.8931 28.3708 34.4557C27.8082 35.0184 27.0451 35.3345 26.2494 35.3345Z" fill="#B29C46"/>
</svg>
