<svg width="48" height="49" viewBox="0 0 48 49" fill="none" xmlns="http://www.w3.org/2000/svg">
<path d="M47.5604 7.63633L41.1966 1.27247C40.6106 0.686521 39.6609 0.686521 39.075 1.27247L36.9534 3.39407C36.3674 3.98001 36.3674 4.92972 36.9534 5.51567L29.7654 12.7036C25.3985 10.8567 20.1653 11.6976 16.6055 15.2565L1.75714 30.1048C-0.585713 32.4477 -0.585713 36.2474 1.75714 38.5903L10.2426 47.0758C12.5854 49.4186 16.3852 49.4186 18.7281 47.0758L33.5774 32.2264C37.1362 28.6676 37.9771 23.4335 36.1302 19.0665L43.3182 11.8786C43.9041 12.4645 44.8538 12.4645 45.4398 11.8786L47.5614 9.75699C48.1464 9.17198 48.1464 8.22228 47.5604 7.63633ZM16.8015 40.5169L8.316 32.0314L19.7574 20.59L28.2429 29.0754L16.8015 40.5169Z" fill="#B29C46"/>
</svg>
