<svg width="23" height="17" viewBox="0 0 23 17" fill="none" xmlns="http://www.w3.org/2000/svg">
<path d="M17.7891 15C18.6191 15 19.2891 14.33 19.2891 13.5C19.2891 12.67 18.6191 12 17.7891 12C16.9591 12 16.2891 12.67 16.2891 13.5C16.2891 14.33 16.9591 15 17.7891 15ZM19.2891 6H16.7891V8.5H21.2491L19.2891 6ZM5.78906 15C6.61906 15 7.28906 14.33 7.28906 13.5C7.28906 12.67 6.61906 12 5.78906 12C4.95906 12 4.28906 12.67 4.28906 13.5C4.28906 14.33 4.95906 15 5.78906 15ZM19.7891 4.5L22.7891 8.5V13.5H20.7891C20.7891 15.16 19.4491 16.5 17.7891 16.5C16.1291 16.5 14.7891 15.16 14.7891 13.5H8.78906C8.78906 15.16 7.44906 16.5 5.78906 16.5C4.12906 16.5 2.78906 15.16 2.78906 13.5H0.789062V2.5C0.789062 1.39 1.67906 0.5 2.78906 0.5H16.7891V4.5H19.7891ZM2.78906 2.5V11.5H3.54906C4.09906 10.89 4.89906 10.5 5.78906 10.5C6.67906 10.5 7.47906 10.89 8.02906 11.5H14.7891V2.5H2.78906ZM9.78906 3.5L13.2891 7L9.78906 10.5V8H4.78906V6H9.78906V3.5Z" fill="black"/>
</svg>
