<svg width="17" height="13" viewBox="0 0 17 13" fill="none" xmlns="http://www.w3.org/2000/svg">
<path d="M14.4919 8.83333C14.9502 8.83333 15.3252 9.20833 15.3252 9.66667C15.3252 10.125 14.9502 10.5 14.4919 10.5C14.0335 10.5 13.6585 10.125 13.6585 9.66667C13.6585 9.20833 14.0335 8.83333 14.4919 8.83333ZM14.4919 7.16667C13.1085 7.16667 11.9919 8.28333 11.9919 9.66667C11.9919 11.05 13.1085 12.1667 14.4919 12.1667C15.8752 12.1667 16.9919 11.05 16.9919 9.66667C16.9919 8.28333 15.8752 7.16667 14.4919 7.16667ZM6.99186 1.33333H2.8252V3H6.99186V1.33333ZM12.8252 0.5H10.3252V2.16667H12.8252V4.375L9.90853 8H6.99186V3.83333H3.65853C1.81686 3.83333 0.325195 5.325 0.325195 7.16667V9.66667H1.99186C1.99186 11.05 3.10853 12.1667 4.49186 12.1667C5.8752 12.1667 6.99186 11.05 6.99186 9.66667H10.7419L14.4919 4.95833V2.16667C14.4919 1.72464 14.3163 1.30072 14.0037 0.988155C13.6911 0.675595 13.2672 0.5 12.8252 0.5ZM4.49186 10.5C4.03353 10.5 3.65853 10.125 3.65853 9.66667H5.3252C5.3252 10.125 4.9502 10.5 4.49186 10.5Z" fill="white"/>
</svg>
