<svg width="49" height="49" viewBox="0 0 49 49" fill="none" xmlns="http://www.w3.org/2000/svg">
<path d="M15.7681 0.514336C14.253 0.371831 12.843 1.30374 12.4558 2.77566L11.0673 8.05115C28.6573 8.56586 40.5564 20.2963 41.3008 37.7709L46.6391 36.2915C48.1129 35.8827 49.0289 34.4464 48.8536 32.9257C46.896 15.977 32.8227 2.12408 15.7681 0.514336ZM10.2863 11.0147L0.92509 46.5931C0.857036 46.8516 0.858349 47.1234 0.928895 47.3812C0.999442 47.639 1.13673 47.8736 1.3269 48.0614C1.51708 48.2492 1.75341 48.3835 2.01207 48.4508C2.27073 48.5181 2.54257 48.516 2.80015 48.4447L38.3326 38.5913C37.9323 22.1948 26.7935 11.2022 10.2863 11.0184V11.0147ZM12.8739 39.5016C12.2806 39.5016 11.7005 39.3256 11.2072 38.996C10.7138 38.6663 10.3293 38.1978 10.1022 37.6496C9.87513 37.1014 9.81572 36.4982 9.93148 35.9162C10.0472 35.3342 10.333 34.7997 10.7525 34.3801C11.1721 33.9605 11.7067 33.6748 12.2886 33.559C12.8706 33.4433 13.4738 33.5027 14.022 33.7298C14.5702 33.9568 15.0388 34.3414 15.3684 34.8347C15.6981 35.3281 15.874 35.9081 15.874 36.5015C15.874 37.2972 15.558 38.0603 14.9953 38.6229C14.4327 39.1855 13.6696 39.5016 12.8739 39.5016ZM17.3741 25.2511C16.7807 25.2511 16.2007 25.0752 15.7073 24.7455C15.214 24.4158 14.8294 23.9473 14.6024 23.3991C14.3753 22.8509 14.3159 22.2477 14.4316 21.6657C14.5474 21.0838 14.8331 20.5492 15.2527 20.1296C15.6723 19.71 16.2068 19.4243 16.7888 19.3086C17.3708 19.1928 17.974 19.2522 18.5222 19.4793C19.0704 19.7064 19.5389 20.0909 19.8686 20.5842C20.1982 21.0776 20.3742 21.6576 20.3742 22.251C20.3742 23.0467 20.0581 23.8098 19.4955 24.3724C18.9328 24.935 18.1698 25.2511 17.3741 25.2511ZM27.1244 35.0014C26.5311 35.0014 25.951 34.8255 25.4577 34.4958C24.9643 34.1662 24.5798 33.6976 24.3527 33.1494C24.1256 32.6012 24.0662 31.998 24.182 31.4161C24.2977 30.8341 24.5835 30.2995 25.003 29.88C25.4226 29.4604 25.9572 29.1746 26.5391 29.0589C27.1211 28.9431 27.7243 29.0025 28.2725 29.2296C28.8207 29.4567 29.2893 29.8412 29.6189 30.3346C29.9486 30.8279 30.1245 31.408 30.1245 32.0013C30.1245 32.797 29.8084 33.5601 29.2458 34.1227C28.6832 34.6854 27.9201 35.0014 27.1244 35.0014Z" fill="white"/>
</svg>
