<svg width="22" height="23" viewBox="0 0 22 23" fill="none" xmlns="http://www.w3.org/2000/svg">
<path d="M0.781467 6.75H3.12522V21.5938C3.12522 21.801 3.20753 21.9997 3.35404 22.1462C3.50055 22.2927 3.69927 22.375 3.90647 22.375H5.46897C5.67617 22.375 5.87488 22.2927 6.02139 22.1462C6.16791 21.9997 6.25022 21.801 6.25022 21.5938V6.75H8.59397C9.28782 6.75 9.63791 5.9082 9.14621 5.4165L5.23996 0.729004C5.09347 0.582602 4.89483 0.500362 4.68772 0.500362C4.48061 0.500362 4.28197 0.582602 4.13547 0.729004L0.229221 5.4165C-0.261013 5.90723 0.0871314 6.75 0.781467 6.75ZM20.3127 13H14.0627C13.8555 13 13.6568 13.0823 13.5103 13.2288C13.3638 13.3753 13.2815 13.574 13.2815 13.7812V15.3438C13.2815 15.551 13.3638 15.7497 13.5103 15.8962C13.6568 16.0427 13.8555 16.125 14.0627 16.125H16.7971L13.8059 19.5649C13.6409 19.7116 13.5089 19.8914 13.4186 20.0927C13.3282 20.2941 13.2814 20.5122 13.2815 20.7329V21.5938C13.2815 21.801 13.3638 21.9997 13.5103 22.1462C13.6568 22.2927 13.8555 22.375 14.0627 22.375H20.3127C20.5199 22.375 20.7186 22.2927 20.8651 22.1462C21.0117 21.9997 21.094 21.801 21.094 21.5938V20.0312C21.094 19.824 21.0117 19.6253 20.8651 19.4788C20.7186 19.3323 20.5199 19.25 20.3127 19.25H17.5783L20.5696 15.8101C20.7345 15.6634 20.8665 15.4836 20.9569 15.2823C21.0473 15.0809 21.094 14.8628 21.094 14.6421V13.7812C21.094 13.574 21.0117 13.3753 20.8651 13.2288C20.7186 13.0823 20.5199 13 20.3127 13ZM21.8293 8.83105L18.9353 1.01855C18.8811 0.866779 18.7813 0.735477 18.6496 0.642642C18.5178 0.549807 18.3606 0.499984 18.1994 0.5H16.176C16.0148 0.499984 15.8576 0.549807 15.7259 0.642642C15.5941 0.735477 15.4943 0.866779 15.4402 1.01855L12.5461 8.83105C12.504 8.94892 12.4909 9.07518 12.5078 9.19918C12.5247 9.32319 12.5711 9.44133 12.6432 9.54365C12.7152 9.64597 12.8108 9.72948 12.9219 9.78714C13.033 9.8448 13.1563 9.87493 13.2815 9.875H14.4939C14.6591 9.87505 14.8201 9.82271 14.9537 9.7255C15.0874 9.62829 15.1867 9.49122 15.2375 9.33398L15.4533 8.70312H18.9201L19.1355 9.33398C19.1864 9.49154 19.286 9.62884 19.42 9.72608C19.5541 9.82332 19.7155 9.87547 19.8811 9.875H21.094C21.2191 9.87493 21.3424 9.8448 21.4535 9.78714C21.5646 9.72948 21.6602 9.64597 21.7323 9.54365C21.8043 9.44133 21.8508 9.32319 21.8677 9.19918C21.8846 9.07518 21.8714 8.94892 21.8293 8.83105ZM16.3874 5.96875L17.1877 3.625L17.988 5.96875H16.3874Z" fill="white"/>
</svg>
