<svg width="21" height="21" viewBox="0 0 21 21" fill="none" xmlns="http://www.w3.org/2000/svg">
<path d="M18.7891 4.5H2.78906V2.5H18.7891M18.7891 14.5H2.78906V8.5H18.7891M18.7891 0.5H2.78906C1.67906 0.5 0.789062 1.39 0.789062 2.5V14.5C0.789063 15.0304 0.999776 15.5391 1.37485 15.9142C1.74992 16.2893 2.25863 16.5 2.78906 16.5H18.7891C19.3195 16.5 19.8282 16.2893 20.2033 15.9142C20.5783 15.5391 20.7891 15.0304 20.7891 14.5V2.5C20.7891 1.96957 20.5783 1.46086 20.2033 1.08579C19.8282 0.710714 19.3195 0.5 18.7891 0.5ZM5.78906 18.5H7.78906V20.5H5.78906V18.5ZM9.78906 18.5H11.7891V20.5H9.78906V18.5ZM13.7891 18.5H15.7891V20.5H13.7891V18.5Z" fill="black"/>
</svg>
