<svg width="53" height="51" viewBox="0 0 53 51" fill="none" xmlns="http://www.w3.org/2000/svg">
<path d="M47.1264 13.2944C47.1595 13.8412 47.1595 14.3882 47.1595 14.9351C47.1595 31.6147 36.4004 50.8335 16.7357 50.8335C10.6774 50.8335 5.04952 48.7631 0.31543 45.1695C1.1762 45.2866 2.00375 45.3257 2.89764 45.3257C7.89647 45.3257 12.4982 43.3336 16.1729 39.9351C11.4719 39.8179 7.53237 36.1851 6.17503 31.1851C6.83719 31.3022 7.49926 31.3803 8.19454 31.3803C9.15456 31.3803 10.1147 31.224 11.0085 30.9507C6.1089 29.7787 2.43409 24.7007 2.43409 18.5679V18.4117C3.85756 19.3492 5.51297 19.9351 7.26743 20.0131C4.38725 17.7475 2.50032 13.8803 2.50032 9.50528C2.50032 7.16158 3.02991 5.01314 3.95692 3.13813C9.2207 10.7944 17.1329 15.7943 26.0051 16.3413C25.8396 15.4037 25.7402 14.4273 25.7402 13.4507C25.7402 6.4975 30.5074 0.833496 36.4333 0.833496C39.5121 0.833496 42.2929 2.35693 44.2461 4.81787C46.6628 4.27102 48.9801 3.21628 51.0327 1.771C50.2381 4.70076 48.5498 7.1617 46.3318 8.72409C48.4837 8.45078 50.5693 7.7475 52.4893 6.77104C51.033 9.27094 49.2121 11.4974 47.1264 13.2944Z" fill="white"/>
</svg>
